<svg width="200" height="200" viewBox="0 0 200 200" fill="none" xmlns="http://www.w3.org/2000/svg">
<g clip-path="url(#clip0)">
<path d="M152.57 40.7227C143.326 40.918 134.309 41.9922 125.52 43.9453C124.868 48.6328 124.543 54.4596 124.543 61.4258C124.543 68.3919 125.129 75.0326 126.301 81.3477C127.473 87.6628 128.059 92.3828 128.059 95.5078C128.059 100.846 124.087 106.641 116.145 112.891C111.262 117.057 106.346 121.126 101.398 125.098C96.4505 129.069 91.5352 133.04 86.6523 137.012C106.639 142.415 127.766 145.117 150.031 145.117C151.268 145.117 152.538 145.117 153.84 145.117C150.845 149.935 148.404 153.646 146.516 156.25C144.693 158.854 142.316 162.5 139.387 167.188C137.238 170.378 133.983 171.973 129.621 171.973C127.733 171.973 122.915 171.159 115.168 169.531C107.486 167.904 97.1016 165.788 84.0156 163.184C70.9948 160.514 58.0065 157.812 45.0508 155.078C55.9883 141.862 62.7591 130.729 65.3633 121.68C66.4049 117.969 66.9258 113.867 66.9258 109.375C66.9258 104.883 65.3633 99.0885 62.2383 91.9922C59.1784 84.8958 56.9974 78.776 55.6953 73.6328C54.4583 68.4896 53.8398 65.0065 53.8398 63.1836C53.8398 58.6263 55.5977 55.5664 59.1133 54.0039C69.9206 49.2513 81.151 44.8893 92.8047 40.918C104.458 36.8815 114.191 33.2357 122.004 29.9805C129.816 26.6602 135.122 25 137.922 25C140.721 25 142.935 25.5859 144.562 26.7578C148.143 29.4271 150.812 34.082 152.57 40.7227ZM102.375 87.3047L100.91 64.5508C100.91 60.5143 101.203 56.4128 101.789 52.2461C100.357 52.9622 98.2409 54.1341 95.4414 55.7617C89.9076 59.082 87.1406 63.2161 87.1406 68.1641C87.1406 69.8568 88.7357 77.4089 91.9258 90.8203C93.1628 96.2891 93.7812 101.042 93.7812 105.078C93.7812 109.115 93.5859 112.5 93.1953 115.234C96.5156 112.826 98.8594 108.464 100.227 102.148C101.659 95.7682 102.375 90.8203 102.375 87.3047Z" fill="black"/>
</g>
<defs>
<clipPath id="clip0">
<rect width="200" height="200" fill="white"/>
</clipPath>
</defs>
</svg>
